<?xml version="1.0" standalone="no"?>
<!DOCTYPE svg PUBLIC "-//W3C//DTD SVG 20010904//EN"
 "http://www.w3.org/TR/2001/REC-SVG-20010904/DTD/svg10.dtd">
<svg version="1.0" xmlns="http://www.w3.org/2000/svg"
 width="6909.000000pt" height="7972.000000pt" viewBox="0 0 6909.000000 7972.000000"
 preserveAspectRatio="xMidYMid meet">

<g transform="translate(0.000000,7972.000000) scale(0.100000,-0.100000)"
fill="#000000" stroke="none">
<path d="M25485 74386 c-132 -31 -255 -90 -365 -177 -27 -21 -1999 -2227
-4382 -4902 -2383 -2674 -6394 -7175 -8913 -10001 -2519 -2827 -4611 -5176
-4649 -5220 -531 -621 -860 -1401 -948 -2246 -19 -184 -16 -629 6 -815 45
-389 107 -637 286 -1140 45 -126 99 -279 120 -340 21 -60 100 -283 175 -495
75 -212 163 -459 195 -550 32 -91 162 -460 290 -820 372 -1052 711 -2011 1073
-3035 113 -319 321 -906 462 -1305 141 -399 261 -736 265 -750 4 -14 31 -88
58 -165 27 -77 170 -480 317 -895 147 -415 343 -969 435 -1230 399 -1129 828
-2342 1045 -2955 128 -363 376 -1063 550 -1555 320 -905 502 -1418 1130 -3195
191 -539 439 -1241 552 -1560 113 -319 269 -762 348 -985 79 -223 274 -776
435 -1230 161 -454 356 -1007 435 -1230 79 -223 457 -1291 840 -2375 383
-1083 775 -2190 870 -2460 269 -762 3738 -10569 4582 -12955 415 -1174 762
-2153 769 -2175 16 -44 -1 -32 292 -202 538 -311 1124 -604 1724 -859 1639
-697 3344 -1102 5148 -1224 494 -33 1407 -38 1850 -11 1568 98 2953 372 4349
858 l244 86 301 197 c166 108 420 275 566 372 146 96 555 366 910 600 4408
2905 9697 6443 13525 9046 4808 3271 8472 5848 10430 7336 904 687 1437 1123
1774 1451 198 192 301 325 301 384 0 12 -2624 9785 -5831 21718 -3207 11934
-5864 21824 -5905 21978 -58 216 -85 301 -119 370 -85 170 -206 290 -380 374
-146 72 -211 86 -385 86 -111 0 -161 -4 -215 -19 -150 -41 -263 -106 -390
-227 -65 -61 -215 -163 -790 -537 -390 -253 -3472 -2258 -6849 -4455 l-6139
-3994 -141 92 c-948 618 -2119 1075 -3356 1309 l-184 35 -46 -42 c-4808 -4454
-6010 -5571 -5998 -5577 7 -4 56 -10 108 -14 535 -38 1291 -185 1871 -365 189
-58 437 -143 465 -159 12 -7 -387 -268 -3304 -2165 -345 -224 -715 -466 -822
-536 -107 -70 -892 -581 -1745 -1136 l-1550 -1009 -205 -94 c-249 -115 -501
-220 -748 -313 -207 -79 -217 -81 -737 -134 -788 -80 -1468 -111 -2290 -102
-642 7 -1055 27 -1610 78 -2158 196 -4280 735 -6245 1586 -146 64 -286 125
-312 136 -27 12 -48 24 -48 29 0 4 13 22 28 40 16 18 284 335 597 703 313 369
783 922 1045 1230 262 308 692 814 956 1125 470 554 1745 2054 2519 2965 215
253 939 1106 1610 1895 1552 1827 1696 1996 2481 2920 357 421 906 1067 1219
1435 313 369 783 922 1045 1230 262 308 732 862 1045 1230 313 369 745 877
960 1130 288 339 2372 2793 2379 2801 1 1 153 -13 641 -60 33 -3 94 -9 135
-12 41 -3 365 -33 720 -68 355 -34 646 -62 648 -61 3 2 -476 2593 -498 2693
-62 274 -284 499 -590 597 -73 24 -105 28 -230 31 -99 3 -164 -1 -205 -10z"/>
</g>
</svg>
